<?xml version="1.0" encoding="UTF-8"?>
<svg width="1345px" height="1102px" viewBox="0 0 1345 1102" version="1.1" xmlns="http://www.w3.org/2000/svg" xmlns:xlink="http://www.w3.org/1999/xlink">
    <!-- Generator: Sketch 63.1 (92452) - https://sketch.com -->
    <title>Group 130</title>
    <desc>Created with Sketch.</desc>
    <defs>
        <linearGradient x1="50%" y1="18.322818%" x2="50%" y2="88.0904713%" id="linearGradient-1">
            <stop stop-color="#B0AAD2" offset="0%"></stop>
            <stop stop-color="#B0AAD2" stop-opacity="0.220907998" offset="100%"></stop>
        </linearGradient>
        <linearGradient x1="50%" y1="18.322818%" x2="50%" y2="88.0904713%" id="linearGradient-2">
            <stop stop-color="#B0AAD2" offset="0%"></stop>
            <stop stop-color="#B0AAD2" stop-opacity="0.220907998" offset="100%"></stop>
        </linearGradient>
        <linearGradient x1="50.0000165%" y1="99.9998677%" x2="50.0000165%" y2="9.40165456e-14%" id="linearGradient-3">
            <stop stop-color="#FFFFFF" stop-opacity="0.52" offset="0%"></stop>
            <stop stop-color="#808080" stop-opacity="0.12" offset="53.514%"></stop>
            <stop stop-color="#FFFFFF" stop-opacity="0.515051355" offset="100%"></stop>
        </linearGradient>
        <linearGradient x1="50.0000165%" y1="99.9998677%" x2="50.0000165%" y2="9.40165456e-14%" id="linearGradient-4">
            <stop stop-color="#FFFFFF" stop-opacity="0.52" offset="0%"></stop>
            <stop stop-color="#808080" stop-opacity="0.12" offset="53.514%"></stop>
            <stop stop-color="#FFFFFF" stop-opacity="0.515051355" offset="100%"></stop>
        </linearGradient>
        <linearGradient x1="50%" y1="0%" x2="50%" y2="100%" id="linearGradient-5">
            <stop stop-color="#B8BFCB" offset="0%"></stop>
            <stop stop-color="#828B9C" offset="100%"></stop>
        </linearGradient>
    </defs>
    <g id="Page-1" stroke="none" stroke-width="1" fill="none" fill-rule="evenodd">
        <g id="Desktop-HD-Copy-18" transform="translate(-3806.000000, -5350.000000)">
            <g id="Group-130" transform="translate(3806.000000, 5350.000000)">
                <path d="M144,1048 C211.934593,1048 267.604083,1057.76989 272.630415,1070.16956 L277.892644,1066 L1155.10736,1066 L1165.77457,1074.4465 C1182.92908,1069.373 1213.34184,1066 1248,1066 C1301.57162,1066 1345,1074.05887 1345,1084 C1345,1093.94113 1301.57162,1102 1248,1102 C1219.2741,1102 1193.46465,1099.68286 1175.70342,1096.00087 L240,1096 L254.771004,1084.30704 C232.240954,1091.31099 191.063764,1096 144,1096 C72.7552673,1096 15,1085.25483 15,1072 C15,1058.74517 72.7552673,1048 144,1048 Z" id="Combined-Shape" fill="url(#linearGradient-1)"></path>
                <rect id="Rectangle" fill="#373A5C" x="310" y="273" width="14" height="466"></rect>
                <polygon id="Combined-Shape" fill="url(#linearGradient-2)" points="311 978 1237 978 1277 1029 271 1029"></polygon>
                <polygon id="Path" fill="#D0D2D5" fill-rule="nonzero" points="893.174357 973.409333 653.930109 970.334698 654.641705 964.198853 666.201798 862.97755 876.310853 862.97755 891.764589 964.198853 892.946109 971.878729"></polygon>
                <rect id="Rectangle" fill="#B4B6B8" fill-rule="nonzero" x="614.053829" y="965.742884" width="317.466202" height="16"></rect>
                <polygon id="Path" fill="#000000" fill-rule="nonzero" opacity="0.132440476" points="796.558295 869.878698 892.006264 965.742884 877.358109 869.878698"></polygon>
                <polygon id="Path" fill="#000000" fill-rule="nonzero" opacity="0.1" points="892.946109 971.878729 773.558946 971.878729 653.930109 970.334698 654.641705 964.198853 891.764589 964.198853"></polygon>
                <rect id="Rectangle" fill="#373196" x="37.5" y="0" width="553.5" height="750"></rect>
                <path d="M591,0 C591,0 37.5,750 37.5,750 L591,750 L591,0 Z" id="Path" fill="#000000" fill-rule="nonzero" opacity="0.0670293899"></path>
                <g id="Group-30" transform="translate(280.000000, 1034.500000)">
                    <rect id="Rectangle" fill="#D8D8D8" x="0" y="7.5" width="876" height="27"></rect>
                    <rect id="Rectangle" fill="#B4B6B8" x="30" y="0" width="37.5" height="7.5"></rect>
                    <rect id="Rectangle" fill="#B4B6B8" x="75" y="0" width="37.5" height="7.5"></rect>
                    <rect id="Rectangle" fill="#B4B6B8" x="120" y="0" width="37.5" height="7.5"></rect>
                    <rect id="Rectangle" fill="#B4B6B8" x="165" y="0" width="37.5" height="7.5"></rect>
                    <rect id="Rectangle" fill="#B4B6B8" x="210" y="0" width="37.5" height="7.5"></rect>
                    <rect id="Rectangle" fill="#B4B6B8" x="255" y="0" width="37.5" height="7.5"></rect>
                    <rect id="Rectangle" fill="#B4B6B8" x="300" y="0" width="37.5" height="7.5"></rect>
                    <rect id="Rectangle" fill="#B4B6B8" x="345" y="0" width="37.5" height="7.5"></rect>
                    <rect id="Rectangle" fill="#B4B6B8" x="390" y="0" width="37.5" height="7.5"></rect>
                    <rect id="Rectangle" fill="#B4B6B8" x="435" y="0" width="37.5" height="7.5"></rect>
                    <rect id="Rectangle" fill="#B4B6B8" x="480" y="0" width="37.5" height="7.5"></rect>
                    <rect id="Rectangle" fill="#B4B6B8" x="532.5" y="0" width="37.5" height="7.5"></rect>
                    <rect id="Rectangle" fill="#B4B6B8" x="577.5" y="0" width="37.5" height="7.5"></rect>
                    <rect id="Rectangle" fill="#B4B6B8" x="622.5" y="0" width="37.5" height="7.5"></rect>
                    <rect id="Rectangle" fill="#B4B6B8" x="675" y="0" width="37.5" height="7.5"></rect>
                    <rect id="Rectangle" fill="#B4B6B8" x="720" y="0" width="37.5" height="7.5"></rect>
                    <rect id="Rectangle" fill="#B4B6B8" x="765" y="0" width="37.5" height="7.5"></rect>
                    <rect id="Rectangle" fill="#B4B6B8" x="810" y="0" width="37.5" height="7.5"></rect>
                    <rect id="Rectangle" fill="#949697" x="0" y="21" width="876" height="13.5"></rect>
                </g>
                <circle id="Oval" fill="#E3E8F4" opacity="0.172177269" transform="translate(209.250000, 179.250000) rotate(-135.000000) translate(-209.250000, -179.250000) " cx="209.25" cy="179.25" r="89.25"></circle>
                <circle id="Oval" fill="#E3E8F4" opacity="0.137486049" transform="translate(230.250000, 186.750000) rotate(-135.000000) translate(-230.250000, -186.750000) " cx="230.25" cy="186.75" r="104.25"></circle>
                <g id="Group-37" transform="translate(1177.000000, 1018.000000)">
                    <path d="M68.25,7.5 C105.943434,7.5 136.5,29.3261184 136.5,56.25 C136.5,56.5005324 136.497354,56.7506234 136.492081,57.0002595 L0.008,57 L0,56.25 C0,29.5953573 29.9484902,7.93703215 67.1213615,7.50653111 Z" id="Combined-Shape" fill="#D8D8D8"></path>
                    <path d="M136.492101,54.0013929 C136.497361,54.2507208 136.5,54.5005024 136.5,54.7507244 C136.5,58.622686 135.868038,62.3892172 134.673769,66.0005632 L1.82633051,66.0008641 C0.631997593,62.3894264 0,58.6227936 0,54.7507244 L0,54.7507244 L0.008,54.0017244 Z" id="Combined-Shape" fill="#949697"></path>
                    <rect id="Rectangle" fill="#575A89" x="62.79" y="0" width="10.92" height="21" rx="5.46"></rect>
                </g>
                <circle id="Oval" fill="#E3E8F4" opacity="0.908365885" transform="translate(218.250000, 186.750000) rotate(-135.000000) translate(-218.250000, -186.750000) " cx="218.25" cy="186.75" r="69.75"></circle>
                <path d="M278.251707,141.000707 C251.155027,153.337621 226.501707,172.228846 226.501707,210.750707 C226.501707,249.272568 246.90991,266.517309 278.251707,280.500707 L278.252707,280.500707 C240.115064,280.500707 209.126999,249.894008 208.511052,211.904151 L208.501707,210.750707 C208.501707,172.228846 239.729846,141.000707 278.251707,141.000707 L278.251707,141.000707 Z" id="Combined-Shape" fill="#FFFFFF" transform="translate(243.377207, 210.750707) rotate(-135.000000) translate(-243.377207, -210.750707) "></path>
                <g id="Group-38" transform="translate(432.000000, 279.000000)" fill-rule="nonzero">
                    <path d="M25.545588,15.292464 L23.215788,15.292464 C22.741284,15.292464 21.567816,13.430064 21.567816,12.895656 L21.567816,10.73106 C21.567816,9.041904 19.657008,4.407852 17.967816,4.407852 C16.278624,4.407852 14.367816,9.041904 14.367816,10.73106 L14.367816,12.895656 C14.367816,13.657272 13.779816,15.292464 13.06092,15.292464 L10.73112,15.292464 C9.041904,15.292464 4.407912,16.603272 4.407912,18.292464 C4.407912,19.981656 9.041904,21.292464 10.73112,21.292464 L13.509696,21.292464 C14.389572,21.292464 14.367816,22.197528 14.367816,22.658316 L14.367816,25.545516 C14.367816,27.234744 16.278624,31.868724 17.967816,31.868724 C19.657008,31.868724 21.567816,27.234744 21.567816,25.545516 L21.567816,22.658316 C21.567816,22.27578 22.34034,21.292464 22.767024,21.292464 L25.545588,21.292464 C27.234744,21.292464 31.868796,19.981728 31.868796,18.292464 C31.868796,16.6032 27.234744,15.292464 25.545588,15.292464 Z" id="Path" fill="#FFFFFF"></path>
                    <path d="M27.923508,14.378868 L24.845784,14.378868 C24.218952,14.378868 22.668768,11.918556 22.668768,11.21262 L22.668768,8.35314 C22.668768,6.121716 20.144532,2.72848411e-13 17.913024,2.72848411e-13 C15.681516,2.72848411e-13 13.157364,6.121716 13.157364,8.35314 L13.157364,11.21262 C13.157364,12.218736 12.380616,14.378868 11.430924,14.378868 L8.3532,14.378868 C6.12168,14.378868 -4.79616347e-13,16.110468 -4.79616347e-13,18.342 C-4.79616347e-13,20.573532 6.12162,22.305036 8.3532,22.305036 L12.02376,22.305036 C13.186104,22.305036 13.157364,23.500656 13.157364,24.10938 L13.157364,27.923448 C13.157364,30.154968 15.6816,36.276648 17.913024,36.276648 C20.144448,36.276648 22.668768,30.155016 22.668768,27.923448 L22.668768,24.10938 C22.668768,23.604024 23.689296,22.305036 24.252948,22.305036 L27.923508,22.305036 C30.154944,22.305036 36.276708,20.573508 36.276708,18.342 C36.276708,16.110492 30.154944,14.378868 27.923508,14.378868 Z" id="Path" fill="url(#linearGradient-3)"></path>
                </g>
                <g id="Group-38" transform="translate(181.500000, 627.000000)" fill-rule="nonzero">
                    <path d="M25.545588,15.292464 L23.215788,15.292464 C22.741284,15.292464 21.567816,13.430064 21.567816,12.895656 L21.567816,10.73106 C21.567816,9.041904 19.657008,4.407852 17.967816,4.407852 C16.278624,4.407852 14.367816,9.041904 14.367816,10.73106 L14.367816,12.895656 C14.367816,13.657272 13.779816,15.292464 13.06092,15.292464 L10.73112,15.292464 C9.041904,15.292464 4.407912,16.603272 4.407912,18.292464 C4.407912,19.981656 9.041904,21.292464 10.73112,21.292464 L13.509696,21.292464 C14.389572,21.292464 14.367816,22.197528 14.367816,22.658316 L14.367816,25.545516 C14.367816,27.234744 16.278624,31.868724 17.967816,31.868724 C19.657008,31.868724 21.567816,27.234744 21.567816,25.545516 L21.567816,22.658316 C21.567816,22.27578 22.34034,21.292464 22.767024,21.292464 L25.545588,21.292464 C27.234744,21.292464 31.868796,19.981728 31.868796,18.292464 C31.868796,16.6032 27.234744,15.292464 25.545588,15.292464 Z" id="Path" fill="#FFFFFF"></path>
                    <path d="M27.923508,14.378868 L24.845784,14.378868 C24.218952,14.378868 22.668768,11.918556 22.668768,11.21262 L22.668768,8.35314 C22.668768,6.121716 20.144532,2.72848411e-13 17.913024,2.72848411e-13 C15.681516,2.72848411e-13 13.157364,6.121716 13.157364,8.35314 L13.157364,11.21262 C13.157364,12.218736 12.380616,14.378868 11.430924,14.378868 L8.3532,14.378868 C6.12168,14.378868 -4.79616347e-13,16.110468 -4.79616347e-13,18.342 C-4.79616347e-13,20.573532 6.12162,22.305036 8.3532,22.305036 L12.02376,22.305036 C13.186104,22.305036 13.157364,23.500656 13.157364,24.10938 L13.157364,27.923448 C13.157364,30.154968 15.6816,36.276648 17.913024,36.276648 C20.144448,36.276648 22.668768,30.155016 22.668768,27.923448 L22.668768,24.10938 C22.668768,23.604024 23.689296,22.305036 24.252948,22.305036 L27.923508,22.305036 C30.154944,22.305036 36.276708,20.573508 36.276708,18.342 C36.276708,16.110492 30.154944,14.378868 27.923508,14.378868 Z" id="Path" fill="url(#linearGradient-3)"></path>
                </g>
                <g id="Group-38" transform="translate(399.000000, 157.500000)" fill-rule="nonzero">
                    <path d="M19.159191,11.469348 L17.411841,11.469348 C17.055963,11.469348 16.175862,10.072548 16.175862,9.671742 L16.175862,8.048295 C16.175862,6.781428 14.742756,3.305889 13.475862,3.305889 C12.208968,3.305889 10.775862,6.781428 10.775862,8.048295 L10.775862,9.671742 C10.775862,10.242954 10.334862,11.469348 9.79569,11.469348 L8.04834,11.469348 C6.781428,11.469348 3.305934,12.452454 3.305934,13.719348 C3.305934,14.986242 6.781428,15.969348 8.04834,15.969348 L10.132272,15.969348 C10.792179,15.969348 10.775862,16.648146 10.775862,16.993737 L10.775862,19.159137 C10.775862,20.426058 12.208968,23.901543 13.475862,23.901543 C14.742756,23.901543 16.175862,20.426058 16.175862,19.159137 L16.175862,16.993737 C16.175862,16.706835 16.755255,15.969348 17.075268,15.969348 L19.159191,15.969348 C20.426058,15.969348 23.901597,14.986296 23.901597,13.719348 C23.901597,12.4524 20.426058,11.469348 19.159191,11.469348 Z" id="Path" fill="#FFFFFF"></path>
                    <path d="M20.942631,10.784151 L18.634338,10.784151 C18.164214,10.784151 17.001576,8.938917 17.001576,8.409465 L17.001576,6.264855 C17.001576,4.591287 15.108399,2.04636308e-13 13.434768,2.04636308e-13 C11.761137,2.04636308e-13 9.868023,4.591287 9.868023,6.264855 L9.868023,8.409465 C9.868023,9.164052 9.285462,10.784151 8.573193,10.784151 L6.2649,10.784151 C4.59126,10.784151 -3.5971226e-13,12.082851 -3.5971226e-13,13.7565 C-3.5971226e-13,15.430149 4.591215,16.728777 6.2649,16.728777 L9.01782,16.728777 C9.889578,16.728777 9.868023,17.625492 9.868023,18.082035 L9.868023,20.942586 C9.868023,22.616226 11.7612,27.207486 13.434768,27.207486 C15.108336,27.207486 17.001576,22.616262 17.001576,20.942586 L17.001576,18.082035 C17.001576,17.703018 17.766972,16.728777 18.189711,16.728777 L20.942631,16.728777 C22.616208,16.728777 27.207531,15.430131 27.207531,13.7565 C27.207531,12.082869 22.616208,10.784151 20.942631,10.784151 Z" id="Path" fill="url(#linearGradient-4)"></path>
                </g>
                <g id="Group-38" transform="translate(75.000000, 498.000000)" fill-rule="nonzero">
                    <path d="M19.159191,11.469348 L17.411841,11.469348 C17.055963,11.469348 16.175862,10.072548 16.175862,9.671742 L16.175862,8.048295 C16.175862,6.781428 14.742756,3.305889 13.475862,3.305889 C12.208968,3.305889 10.775862,6.781428 10.775862,8.048295 L10.775862,9.671742 C10.775862,10.242954 10.334862,11.469348 9.79569,11.469348 L8.04834,11.469348 C6.781428,11.469348 3.305934,12.452454 3.305934,13.719348 C3.305934,14.986242 6.781428,15.969348 8.04834,15.969348 L10.132272,15.969348 C10.792179,15.969348 10.775862,16.648146 10.775862,16.993737 L10.775862,19.159137 C10.775862,20.426058 12.208968,23.901543 13.475862,23.901543 C14.742756,23.901543 16.175862,20.426058 16.175862,19.159137 L16.175862,16.993737 C16.175862,16.706835 16.755255,15.969348 17.075268,15.969348 L19.159191,15.969348 C20.426058,15.969348 23.901597,14.986296 23.901597,13.719348 C23.901597,12.4524 20.426058,11.469348 19.159191,11.469348 Z" id="Path" fill="#FFFFFF"></path>
                    <path d="M20.942631,10.784151 L18.634338,10.784151 C18.164214,10.784151 17.001576,8.938917 17.001576,8.409465 L17.001576,6.264855 C17.001576,4.591287 15.108399,2.04636308e-13 13.434768,2.04636308e-13 C11.761137,2.04636308e-13 9.868023,4.591287 9.868023,6.264855 L9.868023,8.409465 C9.868023,9.164052 9.285462,10.784151 8.573193,10.784151 L6.2649,10.784151 C4.59126,10.784151 -3.5971226e-13,12.082851 -3.5971226e-13,13.7565 C-3.5971226e-13,15.430149 4.591215,16.728777 6.2649,16.728777 L9.01782,16.728777 C9.889578,16.728777 9.868023,17.625492 9.868023,18.082035 L9.868023,20.942586 C9.868023,22.616226 11.7612,27.207486 13.434768,27.207486 C15.108336,27.207486 17.001576,22.616262 17.001576,20.942586 L17.001576,18.082035 C17.001576,17.703018 17.766972,16.728777 18.189711,16.728777 L20.942631,16.728777 C22.616208,16.728777 27.207531,15.430131 27.207531,13.7565 C27.207531,12.082869 22.616208,10.784151 20.942631,10.784151 Z" id="Path" fill="url(#linearGradient-4)"></path>
                </g>
                <circle id="Oval" fill="#D8D8D8" cx="157.5" cy="424.5" r="4.5"></circle>
                <circle id="Oval" fill="#D8D8D8" cx="187.5" cy="394.5" r="4.5"></circle>
                <circle id="Oval" fill="#D8D8D8" cx="97.5" cy="64.5" r="4.5"></circle>
                <circle id="Oval" fill="#D8D8D8" cx="307.5" cy="94.5" r="4.5"></circle>
                <circle id="Oval" fill="#D8D8D8" cx="517.5" cy="214.5" r="4.5"></circle>
                <circle id="Oval" fill="#D8D8D8" cx="351" cy="213" r="3"></circle>
                <circle id="Oval" fill="#D8D8D8" cx="366" cy="33" r="3"></circle>
                <circle id="Oval" fill="#D8D8D8" cx="126" cy="288" r="3"></circle>
                <circle id="Oval" fill="#D8D8D8" cx="532.5" cy="49.5" r="4.5"></circle>
                <rect id="Rectangle" fill="#D0D2D5" x="54" y="889" width="154.5" height="181.5" rx="10.5"></rect>
                <rect id="Rectangle" fill="#ECECEC" x="93" y="889" width="115.5" height="181.5" rx="10.5"></rect>
                <path d="M42.5453684,919 C64.632697,919 68.5711603,943.626174 68.9642615,975.136565 L68.9743615,976.08065 C68.6923541,953.302054 65.8669348,935.5 50.0216773,935.5 C33.1650204,935.5 19.5,955.647186 19.5,980.5 C19.5,1005.35281 33.1650204,1025.5 50.0216773,1025.5 C66.8069653,1025.5 68.9817701,1005.52305 68.9998849,980.815417 L69,981.25 C69,1015.62973 66.0425265,1043.5 42.5453684,1043.5 C19.0482103,1043.5 0,1015.62973 0,981.25 C0,946.870274 19.0482103,919 42.5453684,919 Z" id="Combined-Shape" fill="#D8D8D8"></path>
                <path d="M140.892561,872.5 C103.693565,832.818927 103.693565,792.485067 140.892561,751.49842 C196.691054,690.018449 156.843877,644.767064 120.713834,655.740673 C84.5837911,666.714281 102.020302,690.018449 112.889599,694.516171 C90.690511,690.018449 120.713834,605.616755 171.919842,649.715946 C228.971208,703.737195 136.845488,773.864343 132.396255,805.652636 C129.430099,826.844831 132.262201,849.127286 140.892561,872.5 Z" id="Path-9" fill="#B0AAD2" opacity="0.597167969"></path>
                <path d="M1234.40533,255.032124 C1234.44237,244.016181 1225.55009,235.051795 1214.5342,235 L327.965023,235 C322.66996,235.024868 317.601654,237.152203 313.875104,240.914003 C310.148555,244.675804 308.069031,249.763914 308.093793,255.058977 L308.093793,792.448899 L1234.40533,792.448899 L1234.40533,255.032124 Z" id="Path" fill="#001E47" fill-rule="nonzero"></path>
                <rect id="Rectangle" fill="#AAB6CB" fill-rule="nonzero" x="346.43969" y="268.700155" width="854.225085" height="483.093736"></rect>
                <rect id="Rectangle" fill="#454871" fill-rule="nonzero" x="346.43969" y="268.700155" width="681" height="483.093736"></rect>
                <rect id="Rectangle" fill="#373A5C" fill-rule="nonzero" x="345" y="295" width="682" height="7"></rect>
                <path d="M308.094016,787.078357 L308.094016,850.021116 C308.094016,860.995571 316.990569,869.892124 327.965023,869.892124 L1214.5342,869.892124 C1225.50866,869.892124 1234.40521,860.995571 1234.40521,850.021116 L1234.40521,787.078357 L308.094016,787.078357 Z" id="Path" fill="#D0D2D5" fill-rule="nonzero"></path>
                <path d="M775.854853,846.006649 C782.210463,846.013731 788.216229,843.097494 792.141023,838.098512 L792.141023,838.098512 C792.729781,837.347356 793.268019,836.557941 793.752186,835.735473 L782.380062,833.815504 L794.665178,833.896062 C797.045769,828.718039 797.186621,822.787685 795.054543,817.502481 L778.580403,826.041643 L793.779039,814.870915 C789.888732,808.18396 782.594784,804.223863 774.867835,804.60347 C767.140885,804.983077 760.270225,809.639049 757.054099,816.675126 C753.837973,823.711204 754.813012,831.953372 759.582109,838.044806 L759.582109,838.044806 C763.493143,843.060238 769.49477,845.996678 775.854853,846.006649 L775.854853,846.006649 Z" id="Path" fill="#949494" fill-rule="nonzero"></path>
                <text id="&lt;!DOCTYPE-HTML&gt;-&lt;htm" font-family="AndaleMono, Andale Mono" font-size="14" font-weight="normal" letter-spacing="1.68" fill="#FFFFFF">
                    <tspan x="384" y="342">&lt;!DOCTYPE HTML&gt;</tspan>
                    <tspan x="384" y="358">&lt;html&gt;</tspan>
                    <tspan x="384" y="374">&lt;head&gt;</tspan>
                    <tspan x="384" y="390">&lt;style&gt;</tspan>
                    <tspan x="384" y="406">#div1 {</tspan>
                    <tspan x="384" y="422">  width: 350px;</tspan>
                    <tspan x="384" y="438">  height: 70px;</tspan>
                    <tspan x="384" y="454">  padding: 10px;</tspan>
                    <tspan x="384" y="470">  border: 1px solid #aaaaaa;</tspan>
                    <tspan x="384" y="486">}</tspan>
                    <tspan x="384" y="502">&lt;/style&gt;</tspan>
                    <tspan x="384" y="518">&lt;script&gt;</tspan>
                    <tspan x="384" y="534">function allowDrop(ev) {</tspan>
                    <tspan x="384" y="550">  ev.preventDefault();</tspan>
                    <tspan x="384" y="566">}</tspan>
                    <tspan x="384" y="582"></tspan>
                    <tspan x="384" y="598">function drag(ev) {</tspan>
                    <tspan x="384" y="614">  ev.dataTransfer.setData("text", ev.target.id);</tspan>
                    <tspan x="384" y="630">}</tspan>
                    <tspan x="384" y="646"></tspan>
                    <tspan x="384" y="662">function drop(ev) {</tspan>
                    <tspan x="384" y="678">  ev.preventDefault();</tspan>
                    <tspan x="384" y="694">  var data = ev.dataTransfer.getData("text");</tspan>
                    <tspan x="384" y="710">  ev.target.appendChild(document.getElementById(data));</tspan>
                    <tspan x="384" y="726">}</tspan>
                </text>
                <polygon id="Rectangle" fill="#000000" opacity="0.231747582" points="1115.016 412.027755 1134.39638 412.027755 1139.57025 417.435102 1168.776 417.435102 1168.776 455.286531 1115.016 455.286531"></polygon>
                <polygon id="Rectangle" fill="#FED987" points="1113 410 1132.38037 410 1137.55425 415.407347 1166.76 415.407347 1166.76 453.258776 1113 453.258776"></polygon>
                <polyline id="Path-127" stroke="#E0BF75" stroke-width="1.8" points="1137.55425 413.717551 1133.24021 418.574896 1113 418.574896"></polyline>
                <polygon id="Rectangle" fill="#000000" opacity="0.231747582" points="1115.016 482.027755 1134.39638 482.027755 1139.57025 487.435102 1168.776 487.435102 1168.776 525.286531 1115.016 525.286531"></polygon>
                <polygon id="Rectangle" fill="#FED987" points="1113 480 1132.38037 480 1137.55425 485.407347 1166.76 485.407347 1166.76 523.258776 1113 523.258776"></polygon>
                <polyline id="Path-127" stroke="#E0BF75" stroke-width="1.8" points="1137.55425 484.393469 1133.24021 489.250814 1113 489.250814"></polyline>
                <g id="Group-122" transform="translate(1118.000000, 678.000000)">
                    <ellipse id="Oval" fill="#828B9C" cx="32.7724138" cy="53" rx="21.8482759" ry="5.4"></ellipse>
                    <polygon id="Rectangle" fill="#E2ECFE" points="2.48325498e-12 5.4 49.1586207 5.4 40.9655172 51.3 8.19310345 51.3"></polygon>
                    <ellipse id="Oval" fill="url(#linearGradient-5)" cx="24.5793103" cy="5.4" rx="24.5793103" ry="5.4"></ellipse>
                    <ellipse id="Oval" fill="#E2ECFE" cx="24.5793103" cy="51.65" rx="16.3862069" ry="4.05"></ellipse>
                    <g id="recycle" transform="translate(24.078608, 31.381397) scale(-1, 1) translate(-24.078608, -31.381397) translate(10.078608, 18.381397)" fill="#4F9900" fill-rule="nonzero">
                        <path d="M9.84456761,12.9480837 C10.0169643,13.6400726 9.19792015,14.165998 8.56076732,13.7968416 L6.38788678,12.5383879 L3.67461316,16.5627703 C2.96603733,17.6135829 3.78502809,18.9843607 5.12131549,18.9843607 L7.89438386,18.9843607 C8.24787167,18.9843607 8.53447043,19.2499931 8.53447043,19.5776212 L8.53447043,21.5551561 C8.53447043,21.8827842 8.24787167,22.1484166 7.89438386,22.1484166 L5.12680956,22.1484166 C1.10845277,22.1484166 -1.34350551,18.0426586 0.784462287,14.8869083 L3.49533558,10.863218 L1.32304179,9.60511032 C0.678634642,9.23199891 0.844790446,8.32164071 1.58329032,8.16358624 L7.46339224,6.90537964 C7.92270769,6.80709616 8.38090299,7.07253078 8.486944,7.49814573 L9.84456761,12.9480837 Z M15.1018653,3.90506366 L17.3042431,7.1717536 L15.1311493,8.43030626 C14.4883423,8.80247833 14.6510843,9.71338035 15.3913978,9.87183034 L21.2714997,11.1300369 C21.7340689,11.2288642 22.1897572,10.9600678 22.2950515,10.5372708 L23.6525684,5.08733291 C23.8230981,4.40290808 23.0130152,3.86526577 22.3687681,4.23857493 L20.1985012,5.49549612 L17.9975102,2.22850956 C15.9961196,-0.739424292 11.3187937,-0.746246787 9.31281569,2.22850956 L8.35465944,3.65065379 C8.16743412,3.92849745 8.25864646,4.29439085 8.55842033,4.46801841 L10.3676784,5.51586473 C10.6674522,5.6894923 11.0623856,5.60500212 11.2497176,5.32715846 L12.2077672,3.90615131 C12.8858323,2.90052536 14.44663,2.93340188 15.1018653,3.90506366 L15.1018653,3.90506366 Z M26.5255969,14.8869083 L25.0579318,12.7084064 C24.8706531,12.4304145 24.4756664,12.3458254 24.1757858,12.5195024 L22.3696215,13.5655689 C22.0698477,13.7391965 21.9786353,14.1051888 22.1659673,14.3830819 L23.6362462,16.5639074 C24.3433818,17.6125447 23.5265247,18.9844101 22.1887971,18.9844101 L17.068958,18.9844101 L17.068958,16.6123076 C17.068958,15.90964 16.1492603,15.5551668 15.6120676,16.0530112 L11.3448238,20.0071418 C11.0114988,20.3160327 11.0114988,20.8168929 11.3448238,21.1257838 L15.6120676,25.0803098 C16.1455798,25.5748913 17.068958,25.2284272 17.068958,24.5209146 L17.068958,22.1484166 L22.1832497,22.1484166 C26.198406,22.1484166 28.655325,18.0451799 26.5255969,14.8869083 Z" id="Shape"></path>
                    </g>
                </g>
                <polygon id="Rectangle" fill="#828B9C" points="1121.82462 332.407143 1162.36615 332.407143 1170.81231 369.885714 1113.37846 369.885714"></polygon>
                <polygon id="Rectangle" fill="#EAEAEA" points="1118.44615 329 1158.98769 329 1167.43385 366.478571 1110 366.478571"></polygon>
                <polygon id="Rectangle" fill="#000000" opacity="0.231747582" points="1113.37846 369.885714 1170.81231 369.885714 1169.12308 381.810714 1115.06769 381.810714"></polygon>
                <polygon id="Rectangle" fill="#D8D8D8" points="1110 366.478571 1167.43385 366.478571 1165.74462 378.403571 1111.68923 378.403571"></polygon>
                <g id="database" transform="translate(1126.892308, 334.110714)" fill="#6C63FF" fill-rule="nonzero">
                    <path d="M23.6492308,3.86143611 L23.6492308,6.27481389 C23.6492308,8.40163143 18.3528061,10.13625 11.8246154,10.13625 C5.29642471,10.13625 0,8.40163143 0,6.27481389 L0,3.86143611 C0,1.73461857 5.29642471,0 11.8246154,0 C18.3528061,0 23.6492308,1.73461857 23.6492308,3.86143611 Z M23.6492308,9.2915625 L23.6492308,14.7216889 C23.6492308,16.8485064 18.3528061,18.583125 11.8246154,18.583125 C5.29642471,18.583125 0,16.8485064 0,14.7216889 L0,9.2915625 C2.54044471,11.0412799 7.19021077,11.8558226 11.8246154,11.8558226 C16.45902,11.8558226 21.1087333,11.0412799 23.6492308,9.2915625 Z M23.6492308,17.7384375 L23.6492308,23.1685639 C23.6492308,25.2953814 18.3528061,27.03 11.8246154,27.03 C5.29642471,27.03 0,25.2953814 0,23.1685639 L0,17.7384375 C2.54044471,19.4881549 7.19021077,20.3026976 11.8246154,20.3026976 C16.45902,20.3026976 21.1087333,19.4881549 23.6492308,17.7384375 Z" id="Shape"></path>
                </g>
                <ellipse id="Oval" fill="#ADA9F7" cx="1139" cy="337.5" rx="12" ry="3.5"></ellipse>
                <rect id="Rectangle" fill="#000000" opacity="0.137044271" x="1006" y="272" width="195" height="20"></rect>
                <rect id="Rectangle" fill="#EAEAEA" x="1006" y="269" width="195" height="20"></rect>
                <g id="Group-26" transform="translate(346.000000, 269.000000)" fill-rule="nonzero">
                    <rect id="Rectangle" fill="#6B59FF" x="0" y="0" width="681" height="26"></rect>
                    <circle id="Oval" fill="#FA6400" cx="17" cy="13" r="7"></circle>
                    <circle id="Oval" fill="#F7B500" cx="38" cy="13" r="7"></circle>
                    <circle id="Oval" fill="#6DD400" cx="59" cy="13" r="7"></circle>
                </g>
                <path d="M155.71175,952.688228 L155.999717,953.190474 L155.999356,1018.99965 C131.767649,1005.85341 112.862906,986.000243 114.053275,965.477018 C114.768826,940.75731 145.989915,936.324192 155.71175,952.688228 Z M156.28825,952.688228 C166.010085,936.324192 197.231174,940.75731 197.946725,965.477018 C199.137094,986.000243 180.232351,1005.85341 156.000644,1018.99965 L156.000644,1018.99965 L156.000283,953.190474 Z" id="Combined-Shape" fill="#CD0100"></path>
            </g>
        </g>
    </g>
</svg>